<svg width="58" height="48" viewBox="0 0 58 48" fill="none" xmlns="http://www.w3.org/2000/svg">
<path d="M1.23211 46.564L10.8116 1H56.3318L46.7523 46.564H1.23211Z" fill="#04171A" stroke="#00FFBD" stroke-width="2"/>
<path d="M35.196 17.2049C35.3195 17.1565 35.4421 17.1084 35.5706 17.0754C36.021 16.9598 37.1082 16.8062 36.9913 18.0599C36.9429 18.7091 36.5036 20.9818 36.1616 23.4397L35.0983 30.0475C35.0261 30.4964 35.0022 30.968 34.786 31.368C34.6444 31.6299 34.4074 31.8902 34.0133 31.9734C33.1348 32.1585 31.8166 31.3241 31.5723 31.1385C31.3768 30.9992 27.9108 28.9121 26.6902 27.8921C26.3483 27.6135 25.9574 27.0573 26.7391 26.408L31.865 21.77C32.4508 21.2137 33.0366 19.9151 30.5956 21.4918L24.0667 25.7C23.8624 25.8317 23.6551 25.9632 23.4205 26.0266C23.0598 26.124 22.4169 26.2015 21.5146 25.9443L20.4306 25.6273C19.0429 25.2217 17.8052 24.0998 19.1709 23.6253C23.9969 21.4708 29.9208 19.271 35.196 17.2049Z" fill="#00FFBD"/>
</svg>
