<svg width="59" height="48" viewBox="0 0 59 48" fill="none" xmlns="http://www.w3.org/2000/svg">
<path d="M1.79607 46.564L11.3756 1H56.8958L47.3163 46.564H1.79607Z" fill="white" stroke="#7724FF" stroke-width="2"/>
<path d="M35.7599 17.2049C35.8835 17.1565 36.0061 17.1084 36.1346 17.0754C36.585 16.9598 37.6721 16.8062 37.5552 18.0599C37.5068 18.7091 37.0676 20.9818 36.7256 23.4397L35.6623 30.0475C35.5901 30.4964 35.5662 30.968 35.35 31.368C35.2084 31.6299 34.9713 31.8902 34.5772 31.9734C33.6987 32.1585 32.3805 31.3241 32.1362 31.1385C31.9408 30.9992 28.4747 28.9121 27.2542 27.8921C26.9122 27.6135 26.5214 27.0573 27.3031 26.408L32.4289 21.77C33.0147 21.2137 33.6006 19.9151 31.1596 21.4918L24.6307 25.7C24.4264 25.8317 24.2191 25.9632 23.9844 26.0266C23.6238 26.124 22.9809 26.2015 22.0786 25.9443L20.9945 25.6273C19.6069 25.2217 18.3692 24.0998 19.7348 23.6253C24.5609 21.4708 30.4848 19.271 35.7599 17.2049Z" fill="#7724FF"/>
</svg>
