<svg width="58" height="48" viewBox="0 0 58 48" fill="none" xmlns="http://www.w3.org/2000/svg">
<path d="M1.23211 46.564L10.8116 1H56.3318L46.7523 46.564H1.23211Z" fill="white" stroke="#7724FF" stroke-width="2"/>
<path d="M31.0827 18.7324C29.6876 19.3104 28.7705 20.581 28.7234 22.0333C28.7225 22.1072 28.6588 22.1646 28.5852 22.1578L28.5342 22.1531C26.6875 21.9504 25.0617 21.0136 23.9453 19.492C23.8697 19.3889 23.7687 19.3061 23.6516 19.2512C23.5345 19.1963 23.4051 19.1712 23.2754 19.1781C23.1457 19.185 23.0198 19.2237 22.9096 19.2907C22.7993 19.3577 22.7081 19.4508 22.6444 19.5614L22.5696 19.7015L22.5317 19.7761C21.9766 20.8953 21.613 22.2556 21.7466 23.6973L21.7697 23.903C21.9882 25.6085 22.9278 27.0796 24.6872 28.1829L24.7605 28.2271C24.7869 28.243 24.7856 28.2817 24.7582 28.2959C23.743 28.7956 22.8143 29.0134 21.8037 28.9742C20.9884 28.944 20.6874 30.0082 21.4038 30.3895C24.1815 31.8674 27.1639 32.3233 29.7355 31.5953C32.8699 30.706 35.257 28.4127 36.1703 25.2399L36.2684 24.8669C36.4521 24.1186 36.5556 23.3551 36.578 22.5879C36.5795 22.4234 36.6196 22.2616 36.6952 22.1154L36.8837 21.7507L37.2234 21.101L37.3886 20.7739L37.4797 20.5878C37.6843 20.162 37.8317 19.8093 37.9228 19.5101L37.93 19.4824C37.9324 19.4727 37.9357 19.4634 37.9398 19.4543C38.1097 19.0074 37.8117 18.4309 37.2134 18.4309L37.1192 18.4362C37.0582 18.4435 36.9983 18.4579 36.9408 18.4792L36.8744 18.5078C36.6541 18.6122 36.4272 18.7029 36.195 18.7791L35.9202 18.8658L35.711 18.9261C35.3369 19.0273 34.9439 18.928 34.6027 18.7443C33.6435 18.2281 32.461 18.2252 31.2456 18.6698L31.0827 18.7324Z" fill="#7724FF"/>
</svg>
